<?xml version="1.0" encoding="UTF-8"?>
<svg version="1.1" xmlns="http://www.w3.org/2000/svg" width="418" height="418">
<path d="M0 0 C1.58810423 0.00028278 3.17620859 0.00012238 4.76431274 -0.0004425 C9.03407962 -0.00072695 13.30381784 0.00511231 17.57357812 0.01213145 C22.05118171 0.01842414 26.5287861 0.01897344 31.00639343 0.02015686 C39.46684135 0.02325285 47.92727619 0.03144268 56.38771838 0.04150635 C66.02749607 0.05272155 75.66727442 0.05819151 85.30705702 0.06320179 C105.11966963 0.07362691 124.93227051 0.0911925 144.74487305 0.11352539 C145.07487305 1.10352539 145.40487305 2.09352539 145.74487305 3.11352539 C145.41487305 3.77352539 145.08487305 4.43352539 144.74487305 5.11352539 C144.08487305 5.11352539 143.42487305 5.11352539 142.74487305 5.11352539 C142.41487305 6.43352539 142.08487305 7.75352539 141.74487305 9.11352539 C141.08487305 9.11352539 140.42487305 9.11352539 139.74487305 9.11352539 C139.54249023 9.77094727 139.34010742 10.42836914 139.1315918 11.10571289 C137.1971844 15.30146979 134.41875466 18.63264762 131.55737305 22.23852539 C126.98507522 28.08157064 122.77316571 33.90076346 119.0144043 40.30493164 C118.59545898 40.90176758 118.17651367 41.49860352 117.74487305 42.11352539 C117.08487305 42.11352539 116.42487305 42.11352539 115.74487305 42.11352539 C115.45612305 42.71165039 115.16737305 43.30977539 114.86987305 43.92602539 C113.74487305 46.11352539 113.74487305 46.11352539 111.74487305 49.11352539 C109.42839622 49.48990631 109.42839622 49.48990631 106.47103882 49.49206543 C104.79301178 49.50436943 104.79301178 49.50436943 103.08108521 49.516922 C101.84784515 49.51077377 100.6146051 49.50462555 99.34399414 49.49829102 C97.35694285 49.5065387 95.36989156 49.51478714 93.38284039 49.52306366 C91.24241684 49.52907284 89.10210954 49.52767546 86.96168137 49.5242157 C82.49816632 49.51741535 78.03490937 49.53326019 73.57144165 49.5526123 C64.08759945 49.59052126 54.60377937 49.60326259 45.11987305 49.61352539 C34.90206754 49.62459998 24.68438071 49.64004907 14.46665633 49.68423796 C10.03478741 49.70254942 5.60321259 49.70650209 1.17131495 49.69930267 C-0.9270247 49.69814365 -3.02521478 49.7038055 -5.12353516 49.71247864 C-7.67505784 49.72298396 -10.22665576 49.72297567 -12.77816772 49.71012878 C-22.27844917 49.77875101 -28.46423503 51.73410001 -36.25512695 57.11352539 C-36.91512695 57.11352539 -37.57512695 57.11352539 -38.25512695 57.11352539 C-38.53227539 57.67168945 -38.80942383 58.22985352 -39.0949707 58.80493164 C-39.88727147 60.38153014 -40.69258219 61.95164056 -41.5090332 63.51586914 C-41.94086914 64.3524707 -42.37270508 65.18907227 -42.81762695 66.05102539 C-43.46924805 67.30206055 -43.46924805 67.30206055 -44.1340332 68.57836914 C-47.63944649 76.50524449 -46.80878876 84.76979585 -44.18481445 92.81665039 C-42.9160214 95.95131559 -41.24889605 98.38870763 -39.25512695 101.11352539 C-38.92512695 102.10352539 -38.59512695 103.09352539 -38.25512695 104.11352539 C-36.42122873 105.23400481 -36.42122873 105.23400481 -34.25512695 106.11352539 C-33.26512695 106.62592773 -33.26512695 106.62592773 -32.25512695 107.14868164 C-31.26512695 107.6572168 -31.26512695 107.6572168 -30.25512695 108.17602539 C-29.26512695 108.68842773 -29.26512695 108.68842773 -28.25512695 109.21118164 C-24.21968923 111.03185764 -20.60500496 111.24112358 -16.19580078 111.25537109 C-14.35656792 111.26592278 -14.35656792 111.26592278 -12.48017883 111.27668762 C-11.82648127 111.27850351 -11.1727837 111.2803194 -10.49927711 111.28219032 C-8.43168418 111.2894131 -6.36432084 111.30512965 -4.29679871 111.3235321 C1.58155828 111.37567498 7.45979656 111.42376514 13.33837891 111.43945312 C51.96196477 111.55860945 51.96196477 111.55860945 67.18237305 119.86352539 C68.16790161 120.38112427 68.16790161 120.38112427 69.17333984 120.90917969 C74.91745257 124.02030923 79.94294607 127.67610112 84.74487305 132.11352539 C85.67041992 132.95915039 86.5959668 133.80477539 87.54956055 134.67602539 C102.80907969 149.23253146 110.56646061 167.82933907 111.09814453 188.87182617 C111.17311817 198.33198305 110.44180257 206.99976356 107.74487305 216.11352539 C107.3272168 217.53665039 107.3272168 217.53665039 106.90112305 218.98852539 C100.37382345 238.79550347 85.89739523 255.38081857 67.50048828 264.94750977 C56.67102792 270.40368477 47.21053392 273.27815219 35.08889771 273.23377991 C33.80101422 273.23506154 33.80101422 273.23506154 32.48711288 273.23636907 C29.61744513 273.23801286 26.74783617 273.23252054 23.87817383 273.22705078 C21.81820171 273.22676865 19.7582295 273.22692716 17.69825745 273.22749329 C12.10993918 273.22778023 6.52164238 273.22190005 0.93332911 273.21491933 C-4.90830724 273.20866874 -10.74994408 273.20808064 -16.59158325 273.20689392 C-27.65179477 273.20378564 -38.7119964 273.19557902 -49.77220356 273.18554443 C-62.36460482 273.17436768 -74.95700655 273.1688689 -87.54941154 273.163849 C-113.45132215 273.15339601 -139.353224 273.13580629 -165.25512695 273.11352539 C-163.13423911 268.6688924 -160.17159327 265.22826337 -157.0324707 261.45336914 C-155.09119059 259.15842182 -155.09119059 259.15842182 -154.25512695 256.11352539 C-152.60463325 254.4308412 -150.93464501 252.7672408 -149.25512695 251.11352539 C-147.27343577 248.81061071 -145.38954793 246.43382612 -143.50512695 244.05102539 C-143.03075195 243.45870117 -142.55637695 242.86637695 -142.06762695 242.25610352 C-141.5777832 241.64057617 -141.08793945 241.02504883 -140.58325195 240.39086914 C-140.08007981 239.774206 -139.57690767 239.15754286 -139.05848789 238.52219296 C-137.16049548 236.08566662 -137.16049548 236.08566662 -135.52097225 233.11703587 C-130.34459265 224.77654279 -130.34459265 224.77654279 -124.84645271 223.03190422 C-120.62911909 222.65638314 -116.56216951 222.65972944 -112.33740234 222.79882812 C-110.73657557 222.80713624 -109.13571346 222.81008786 -107.53486633 222.80812073 C-103.20664433 222.81745589 -98.88258726 222.90017448 -94.55552602 222.99559283 C-90.01481452 223.082159 -85.47388043 223.09766847 -80.93247986 223.12013245 C-72.33059494 223.1728392 -63.73058044 223.28414064 -55.1296286 223.41892248 C-42.52391497 223.61439971 -29.91743146 223.73438751 -17.31066799 223.83910465 C-15.91983984 223.850667 -15.91983984 223.850667 -14.50091416 223.86246294 C-12.65107228 223.87776002 -10.80122873 223.89285652 -8.95138353 223.90774685 C-3.55548147 223.95333102 1.83961432 224.02025551 7.23502529 224.10591972 C10.59946291 224.15721963 13.96397678 224.19643634 17.32859993 224.23332787 C18.88060613 224.25320589 20.43255508 224.27844454 21.984375 224.30964279 C33.94078777 224.54698433 44.4699949 224.01211673 53.55737305 215.39477539 C59.82279694 208.8160803 61.84107774 202.75085468 62.18237305 193.73852539 C61.92031971 184.38103755 59.25007919 176.66384412 52.74487305 169.83618164 C46.33462232 164.3148524 40.0343595 161.99863309 31.66967773 161.97167969 C30.4402948 161.96464523 29.21091187 161.95761078 27.9442749 161.95036316 C26.96129551 161.94763932 26.96129551 161.94763932 25.95845795 161.94486046 C23.88693911 161.93764024 21.81564977 161.92192625 19.74420166 161.90351868 C13.85481221 161.85135864 7.96554237 161.80326673 2.07592773 161.78759766 C-35.21375864 161.67290124 -35.21375864 161.67290124 -50.56762695 153.36352539 C-51.55170532 152.8502771 -51.55170532 152.8502771 -52.55566406 152.32666016 C-72.06642048 141.88290562 -85.06832286 125.67469441 -92.3918457 104.88696289 C-97.64661099 86.27740389 -96.83125517 64.6437129 -88.25512695 47.11352539 C-87.82329102 46.2227832 -87.39145508 45.33204102 -86.9465332 44.41430664 C-79.46198679 29.87116362 -68.44616408 18.19087748 -54.25512695 10.11352539 C-53.46493164 9.65075195 -52.67473633 9.18797852 -51.8605957 8.71118164 C-35.69194033 -0.11052254 -17.92152315 -0.04528252 0 0 Z " fill="#0060B6" transform="translate(183.255126953125,66.886474609375)"/>
<path d="M0 0 C4.25238273 0.46635801 6.30697828 2.36599631 9.3125 5.17578125 C10.46019748 6.19761077 11.61000557 7.21707375 12.76171875 8.234375 C13.34872559 8.75757324 13.93573242 9.28077148 14.54052734 9.81982422 C17.31610619 12.23746123 20.21376962 14.48743243 23.125 16.73828125 C28.34581189 20.79858586 33.5009198 24.9315675 38.625 29.11328125 C43.34788795 32.96549091 48.08998308 36.77977395 52.91796875 40.5 C77.84926471 59.90004596 77.84926471 59.90004596 83.3125 65.36328125 C83.26211506 69.64600148 82.89883133 71.72204264 79.9765625 74.91796875 C78.97367188 75.68367188 77.97078125 76.449375 76.9375 77.23828125 C76.39875244 77.65972412 75.86000488 78.08116699 75.30493164 78.51538086 C74.1910777 79.38667448 73.07163048 80.25086372 71.94677734 81.10791016 C69.49903251 82.98814677 67.12852883 84.95911889 64.75 86.92578125 C62.93773426 88.40523492 61.12523495 89.88440252 59.3125 91.36328125 C56.55931417 93.61517577 53.8068295 95.86792367 51.0546875 98.12109375 C49.24925589 99.59732985 47.44200859 101.07134861 45.6328125 102.54296875 C41.25960435 106.1049151 36.91337753 109.69186502 32.62329102 113.35327148 C25.83379395 119.14614513 18.89880531 124.71907399 11.83398438 130.17236328 C10.48005094 131.23213339 9.15205116 132.32484814 7.828125 133.421875 C2.98556582 137.36328125 2.98556582 137.36328125 -0.625 137.36328125 C-2.6875 136.36328125 -2.6875 136.36328125 -3.6875 134.36328125 C-3.77309118 132.18503164 -3.79463412 130.0041287 -3.78515625 127.82421875 C-3.78193359 126.52226562 -3.77871094 125.2203125 -3.77539062 123.87890625 C-3.76703466 122.49869726 -3.75856971 121.11848893 -3.75 119.73828125 C-3.74498501 118.35026199 -3.7404221 116.96224103 -3.73632812 115.57421875 C-3.72450976 112.17052993 -3.70803434 108.76692686 -3.6875 105.36328125 C-7.3175 105.36328125 -10.9475 105.36328125 -14.6875 105.36328125 C-15.63827924 101.5601643 -16.01157647 98.07183779 -16.375 94.17578125 C-18.94859742 71.97595032 -30.71240713 52.9912417 -47.9375 38.92578125 C-51.06451643 36.47832885 -54.25217295 34.35504002 -57.6875 32.36328125 C-57.3575 31.70328125 -57.0275 31.04328125 -56.6875 30.36328125 C-39.5275 30.03328125 -22.3675 29.70328125 -4.6875 29.36328125 C-4.39819287 20.19364172 -4.39819287 20.19364172 -4.11938477 11.02368164 C-4.08127686 9.88922607 -4.04316895 8.75477051 -4.00390625 7.5859375 C-3.96724854 6.41812744 -3.93059082 5.25031738 -3.89282227 4.04711914 C-3.61694025 0.44097052 -3.57875892 0.48375666 0 0 Z " fill="#5BC13D" transform="translate(321.6875,147.63671875)"/>
<path d="M0 0 C16.5 0 33 0 50 0 C50 0.33 50 0.66 50 1 C41.42 1.33 32.84 1.66 24 2 C23.67 2.66 23.34 3.32 23 4 C20.67843403 4.40729228 18.3431213 4.74438677 16 5 C16 5.99 16 6.98 16 8 C16 9.32 16 10.64 16 12 C16.78375 11.95875 17.5675 11.9175 18.375 11.875 C21 12 21 12 23 14 C23.103125 14.598125 23.20625 15.19625 23.3125 15.8125 C24.3236935 19.02993386 26.61473865 20.67291575 29 23 C30.68236531 25.72382956 31 26.73884371 31 30 C31.99 30 32.98 30 34 30 C34 30.66 34 31.32 34 32 C33.34 32 32.68 32 32 32 C32 32.66 32 33.32 32 34 C32.99 34.33 33.98 34.66 35 35 C36.64820195 37.60242414 37 38.86248779 37 42 C37.66 42 38.32 42 39 42 C39.18175781 42.84304687 39.36351562 43.68609375 39.55078125 44.5546875 C39.80214844 45.65039062 40.05351562 46.74609375 40.3125 47.875 C40.55613281 48.96554688 40.79976563 50.05609375 41.05078125 51.1796875 C41.77902058 54.29442353 41.77902058 54.29442353 45 56 C46.48820767 59.47248457 45.65227154 62.3762692 45 66 C44.96296931 67.99965715 44.95239444 70.00056665 45 72 C45.721875 71.67 46.44375 71.34 47.1875 71 C50.01697427 69.99396471 52.02895466 69.83022598 55 70 C54.79375 70.5775 54.5875 71.155 54.375 71.75 C53.75284739 73.98207817 53.75284739 73.98207817 54.96484375 75.60546875 C56.52430178 79.21281885 56.24978399 82.67794583 56.1875 86.5625 C56.18685547 87.33013672 56.18621094 88.09777344 56.18554688 88.88867188 C56.15979358 92.17078681 56.04420321 94.86739037 55 98 C55.99 98.33 56.98 98.66 58 99 C58 99.66 58 100.32 58 101 C60.97 100.505 60.97 100.505 64 100 C63.7215625 99.071875 63.7215625 99.071875 63.4375 98.125 C63 96 63 96 64 94 C65.093125 94.0825 66.18625 94.165 67.3125 94.25 C71.03442858 94.41103961 71.03442858 94.41103961 72.9375 92 C73.288125 91.34 73.63875 90.68 74 90 C72.515 89.01 72.515 89.01 71 88 C75.75 86 75.75 86 78 86 C78.474375 85.34 78.94875 84.68 79.4375 84 C80.2109375 83.01 80.2109375 83.01 81 82 C81.99 82 82.98 82 84 82 C84.4125 81.401875 84.825 80.80375 85.25 80.1875 C88.33888068 76.32639915 93.24743259 74.95051348 98 74 C98.495 72.02 98.495 72.02 99 70 C99.78375 69.938125 100.5675 69.87625 101.375 69.8125 C102.24125 69.544375 103.1075 69.27625 104 69 C105.37466625 66.52363988 105.37466625 66.52363988 106 64 C107.65 64 109.3 64 111 64 C107.45887162 67.63259664 103.76765138 70.99471103 99.875 74.25 C99.01805542 74.97050537 99.01805542 74.97050537 98.14379883 75.70556641 C92.80273168 80.18651172 87.40978501 84.60236832 82 89 C80.66773775 90.09086378 79.33572359 91.18203059 78.00390625 92.2734375 C76.58601795 93.4323901 75.16804941 94.59124453 73.75 95.75 C73.08830811 96.29317871 72.42661621 96.83635742 71.74487305 97.39599609 C59.94136355 107.02046442 59.94136355 107.02046442 56.125 106.9375 C54 106 54 106 53 104 C52.91440882 101.82175039 52.89286588 99.64084745 52.90234375 97.4609375 C52.90556641 96.15898437 52.90878906 94.85703125 52.91210938 93.515625 C52.92046534 92.13541601 52.92893029 90.75520768 52.9375 89.375 C52.94251499 87.98698074 52.9470779 86.59895978 52.95117188 85.2109375 C52.96299024 81.80724868 52.97946566 78.40364561 53 75 C49.37 75 45.74 75 42 75 C41.04922076 71.19688305 40.67592353 67.70855654 40.3125 63.8125 C37.73890258 41.61266907 25.97509287 22.62796045 8.75 8.5625 C5.62298357 6.1150476 2.43532705 3.99175877 -1 2 C-0.67 1.34 -0.34 0.68 0 0 Z " fill="#40AD68" transform="translate(265,178)"/>
<path d="M0 0 C1.66632847 0.00338924 3.33267483 0.00147635 4.99899292 -0.00531006 C9.50197108 -0.00874046 14.00107981 0.06158002 18.50316167 0.14557743 C23.21548301 0.22081814 27.92790248 0.22765942 32.64073181 0.24188232 C41.55548283 0.27911573 50.46845872 0.3774964 59.38242954 0.4980762 C69.53455144 0.63241041 79.68676011 0.69823448 89.83955014 0.75842142 C110.71555578 0.88370582 131.58996568 1.09464593 152.46459961 1.36230469 C149.35190291 3.17328916 147.08322378 3.61656667 143.49812317 3.63404846 C142.49695969 3.64376678 141.4957962 3.65348511 140.46429443 3.66349792 C139.37102844 3.66408707 138.27776245 3.66467621 137.15136719 3.6652832 C135.99434799 3.67372253 134.8373288 3.68216187 133.64524841 3.69085693 C129.79987174 3.71673808 125.95457269 3.72881911 122.10913086 3.74121094 C119.41377797 3.75622634 116.71844971 3.77445437 114.02311707 3.79270935 C107.62042567 3.83442159 101.21772597 3.86676433 94.81496304 3.8951835 C82.79854363 3.94870355 70.78220591 4.0174409 58.76589584 4.09132004 C56.04130321 4.10806065 53.31670761 4.12393495 50.59210587 4.13911819 C33.75988727 4.23430713 16.94299711 4.42045096 0.12373352 5.11683655 C-1.02746475 5.16295578 -2.17866302 5.20907501 -3.36474609 5.2565918 C-4.33064163 5.30093857 -5.29653717 5.34528534 -6.29170227 5.39097595 C-8.53540039 5.36230469 -8.53540039 5.36230469 -10.53540039 4.36230469 C-10.53540039 5.02230469 -10.53540039 5.68230469 -10.53540039 6.36230469 C-13.53540039 7.36230469 -13.53540039 7.36230469 -16.53540039 7.36230469 C-16.04040039 8.84730469 -16.04040039 8.84730469 -15.53540039 10.36230469 C-17.53540039 13.36230469 -17.53540039 13.36230469 -20.16040039 14.04980469 C-20.94415039 14.15292969 -21.72790039 14.25605469 -22.53540039 14.36230469 C-22.65915039 14.91917969 -22.78290039 15.47605469 -22.91040039 16.04980469 C-23.61300943 18.64945815 -24.30197277 20.96036669 -25.53540039 23.36230469 C-27.66040039 24.17480469 -27.66040039 24.17480469 -29.53540039 24.36230469 C-29.53540039 25.02230469 -29.53540039 25.68230469 -29.53540039 26.36230469 C-30.52540039 27.02230469 -31.51540039 27.68230469 -32.53540039 28.36230469 C-32.53540039 29.02230469 -32.53540039 29.68230469 -32.53540039 30.36230469 C-33.25727539 30.50667969 -33.97915039 30.65105469 -34.72290039 30.79980469 C-38.86872901 33.10304281 -41.11257296 36.85540267 -42.53540039 41.36230469 C-41.76761027 43.62994759 -41.76761027 43.62994759 -40.53540039 45.36230469 C-41.19540039 46.02230469 -41.85540039 46.68230469 -42.53540039 47.36230469 C-39.56299789 48.84850594 -36.53546223 48.50309007 -33.27639771 48.49601746 C-32.51953135 48.49828301 -31.762665 48.50054857 -30.98286331 48.50288278 C-28.43281482 48.50924028 -25.88281924 48.50839227 -23.33276367 48.50756836 C-21.50959707 48.51055897 -19.68643111 48.51396127 -17.86326599 48.51774597 C-12.89785764 48.52660537 -7.93246652 48.52892505 -2.96705103 48.52956176 C1.1799329 48.53051033 5.32691281 48.53418847 9.47389519 48.53773385 C19.26637165 48.54588763 29.0588389 48.54831745 38.85131836 48.54760742 C48.93834891 48.54700804 59.02532574 48.55752982 69.11234272 48.57335109 C77.7774696 48.58645579 86.44257901 48.59179001 95.10771573 48.59115201 C100.28027361 48.59089766 105.45278389 48.59371347 110.62533188 48.60433006 C115.49919241 48.61405904 120.37296034 48.61405748 125.24682426 48.60681343 C127.02850035 48.60577316 128.81018234 48.60809704 130.59184837 48.61417389 C139.19121791 48.64158537 147.45681366 48.5480924 155.92834663 46.85229969 C160.07221289 46.05171955 164.26249389 45.71557906 168.46459961 45.36230469 C168.46459961 44.37230469 168.46459961 43.38230469 168.46459961 42.36230469 C169.96459961 40.67480469 169.96459961 40.67480469 171.46459961 39.36230469 C172.45459961 39.69230469 173.44459961 40.02230469 174.46459961 40.36230469 C174.46459961 41.02230469 174.46459961 41.68230469 174.46459961 42.36230469 C175.78459961 42.03230469 177.10459961 41.70230469 178.46459961 41.36230469 C176.80176214 44.68797962 173.10908564 45.21183192 169.77709961 46.42480469 C169.06875977 46.69357422 168.36041992 46.96234375 167.63061523 47.23925781 C160.65835298 49.82086184 154.20037892 50.50961735 146.80862427 50.4825592 C145.52074078 50.48384084 145.52074078 50.48384084 144.20683944 50.48514837 C141.3371717 50.48679216 138.46756273 50.48129984 135.59790039 50.47583008 C133.53792828 50.47554794 131.47795606 50.47570646 129.41798401 50.47627258 C123.82966575 50.47655953 118.24136894 50.47067935 112.65305567 50.46369863 C106.81141932 50.45744803 100.96978249 50.45685994 95.12814331 50.45567322 C84.06793179 50.45256494 73.00773016 50.44435832 61.947523 50.43432373 C49.35512174 50.42314698 36.76272001 50.4176482 24.17031503 50.41262829 C-1.73159559 50.4021753 -27.63349744 50.38458558 -53.53540039 50.36230469 C-51.41451255 45.9176717 -48.45186671 42.47704267 -45.31274414 38.70214844 C-43.37146402 36.40720112 -43.37146402 36.40720112 -42.53540039 33.36230469 C-40.88490668 31.6796205 -39.21491845 30.01602009 -37.53540039 28.36230469 C-35.55370921 26.05939001 -33.66982137 23.68260542 -31.78540039 21.29980469 C-31.31102539 20.70748047 -30.83665039 20.11515625 -30.34790039 19.50488281 C-29.85805664 18.88935547 -29.36821289 18.27382813 -28.86352539 17.63964844 C-28.35955703 17.02292393 -27.85558867 16.40619942 -27.33634853 15.77078629 C-25.43987954 13.33694657 -25.43987954 13.33694657 -23.82296085 10.36748886 C-17.6883366 0.40200024 -11.09888334 -0.31704834 0 0 Z " fill="#0E3A8F" transform="translate(71.535400390625,289.6376953125)"/>
<path d="M0 0 C19.14 0 38.28 0 58 0 C58.33 0.99 58.66 1.98 59 3 C58.67 3.66 58.34 4.32 58 5 C57.34 5 56.68 5 56 5 C55.67 6.32 55.34 7.64 55 9 C54.34 9 53.68 9 53 9 C52.79761719 9.65742187 52.59523438 10.31484375 52.38671875 10.9921875 C50.45231135 15.1879444 47.67388162 18.51912223 44.8125 22.125 C40.24020217 27.96804525 36.02829267 33.78723807 32.26953125 40.19140625 C31.85058594 40.78824219 31.43164062 41.38507813 31 42 C30.34 42 29.68 42 29 42 C28.71125 42.598125 28.4225 43.19625 28.125 43.8125 C27 46 27 46 25 49 C22.67793655 49.38196754 22.67793655 49.38196754 19.71270752 49.39199829 C18.59113251 49.40309128 17.4695575 49.41418427 16.31399536 49.4256134 C14.45942215 49.4211042 14.45942215 49.4211042 12.56738281 49.41650391 C11.26975006 49.42508926 9.97211731 49.43367462 8.63516235 49.44252014 C5.06884038 49.46590305 1.5026923 49.47099631 -2.06369686 49.47317934 C-5.79523 49.47883244 -9.52664926 49.50210345 -13.25811768 49.52377319 C-20.3340813 49.56235119 -27.41001247 49.58653183 -34.48605466 49.60489786 C-47.14623908 49.63823419 -59.80632488 49.69613295 -72.46639371 49.75888956 C-76.90876355 49.78034636 -81.35110018 49.79563694 -85.79350996 49.80572915 C-87.8944646 49.81106921 -89.99539932 49.81854092 -92.09634399 49.82688904 C-94.65484444 49.83685271 -97.21336218 49.84327256 -99.7718811 49.84544373 C-100.90473541 49.85089706 -102.03758972 49.8563504 -103.20477295 49.86196899 C-104.18480663 49.86452509 -105.16484032 49.86708118 -106.17457199 49.86971474 C-109.1812882 50.00835951 -112.04325379 50.44921284 -115 51 C-113.02579865 48.47740939 -112.03254358 48.0070192 -108.8125 47.3125 C-107.4203125 47.1578125 -107.4203125 47.1578125 -106 47 C-106 46.34 -106 45.68 -106 45 C-105.01 45.33 -104.02 45.66 -103 46 C-103 46.66 -103 47.32 -103 48 C-102.09101959 47.98747192 -101.18203918 47.97494385 -100.24551392 47.96203613 C-88.7053994 47.80366828 -77.16522782 47.649886 -65.625 47.5 C-64.71077271 47.48812275 -63.79654541 47.4762455 -62.85461426 47.46400833 C-35.56872922 47.11107363 -8.28859298 46.8325379 19 47 C19 46.34 19 45.68 19 45 C19.94875 44.9175 20.8975 44.835 21.875 44.75 C25.10461791 44.34925077 25.10461791 44.34925077 26.375 41.9375 C26.58125 41.298125 26.7875 40.65875 27 40 C27.66 40 28.32 40 29 40 C29.4021875 38.9171875 29.4021875 38.9171875 29.8125 37.8125 C30.99901362 35.00233617 32.27485639 32.51583443 34 30 C34.66 30 35.32 30 36 30 C36.98120464 26.94736336 36.98120464 25.05263664 36 22 C38.97 21.505 38.97 21.505 42 21 C42.185625 20.13375 42.185625 20.13375 42.375 19.25 C43.02855574 16.89719934 43.65913896 15.04657738 45 13 C45.66 12.855625 46.32 12.71125 47 12.5625 C49.24345077 12.18155612 49.24345077 12.18155612 50.3125 9.75 C51.07072254 6.71710982 50.69948299 4.99922204 50 2 C41.64407619 2.51261702 41.64407619 2.51261702 33.4375 4.0625 C28.34744924 5.31399872 23.21606736 5.40051946 18 5 C17.67 4.67 17.34 4.34 17 4 C14.9254644 3.8509288 14.9254644 3.8509288 13 5 C12.01 4.34 11.02 3.68 10 3 C7.49103314 2.54398739 7.49103314 2.54398739 4.8125 2.375 C3.46091797 2.26285156 3.46091797 2.26285156 2.08203125 2.1484375 C1.39496094 2.09945312 0.70789063 2.05046875 0 2 C0 1.34 0 0.68 0 0 Z " fill="#21ABB6" transform="translate(270,67)"/>
<path d="M0 0 C16.5 0 33 0 50 0 C50 0.33 50 0.66 50 1 C41.42 1.33 32.84 1.66 24 2 C23.67 2.66 23.34 3.32 23 4 C20.67843403 4.40729228 18.3431213 4.74438677 16 5 C16 5.99 16 6.98 16 8 C16 9.32 16 10.64 16 12 C16.78375 11.95875 17.5675 11.9175 18.375 11.875 C21 12 21 12 23 14 C23.103125 14.598125 23.20625 15.19625 23.3125 15.8125 C24.3236935 19.02993386 26.61473865 20.67291575 29 23 C30.68236531 25.72382956 31 26.73884371 31 30 C31.99 30 32.98 30 34 30 C34 30.66 34 31.32 34 32 C33.34 32 32.68 32 32 32 C32 32.66 32 33.32 32 34 C32.99 34.33 33.98 34.66 35 35 C36.64820195 37.60242414 37 38.86248779 37 42 C37.66 42 38.32 42 39 42 C39.67901044 44.81001195 40.34333172 47.62225661 41 50.4375 C41.19078125 51.22060547 41.3815625 52.00371094 41.578125 52.81054688 C42.85087568 58.33337573 43.18152971 63.33286923 43 69 C42.01 69.495 42.01 69.495 41 70 C40.84144531 68.77925781 40.68289063 67.55851562 40.51953125 66.30078125 C37.10405705 41.53165131 26.20392528 22.22333367 6.359375 6.69140625 C3.97651907 4.98316682 1.53551265 3.47005787 -1 2 C-0.67 1.34 -0.34 0.68 0 0 Z " fill="#52B258" transform="translate(265,178)"/>
<path d="M0 0 C0.99 0.33 1.98 0.66 3 1 C3 1.66 3 2.32 3 3 C4.32 2.67 5.64 2.34 7 2 C5.33716253 5.32567493 1.64448603 5.84952723 -1.6875 7.0625 C-2.39583984 7.33126953 -3.10417969 7.60003906 -3.83398438 7.87695312 C-10.80624663 10.45855715 -17.26422069 11.14731266 -24.65597534 11.12025452 C-25.94385883 11.12153615 -25.94385883 11.12153615 -27.25776017 11.12284368 C-30.12742791 11.12448747 -32.99703688 11.11899515 -35.86669922 11.11352539 C-37.92667133 11.11324326 -39.98664355 11.11340177 -42.0466156 11.1139679 C-47.63493386 11.11425484 -53.22323067 11.10837466 -58.81154394 11.10139394 C-64.65318029 11.09514335 -70.49481712 11.09455525 -76.3364563 11.09336853 C-87.39666781 11.09026025 -98.45686945 11.08205363 -109.51707661 11.07201904 C-122.10947787 11.06084229 -134.7018796 11.05534351 -147.29428458 11.05032361 C-173.1961952 11.03987062 -199.09809705 11.0222809 -225 11 C-223.25 7.125 -223.25 7.125 -221 6 C-221 6.99 -221 7.98 -221 9 C-195.65203138 9.04677466 -170.30406926 9.08201562 -144.95606613 9.10362434 C-133.18586533 9.11392548 -121.41569138 9.12796359 -109.64550781 9.15087891 C-99.38351207 9.17084837 -89.12153578 9.18372488 -78.85952115 9.18817699 C-73.42871011 9.19077834 -67.99795472 9.19686842 -62.56716156 9.21146011 C-57.44874548 9.22510023 -52.33040763 9.22920969 -47.2119751 9.22621536 C-45.33999455 9.22676266 -43.4680112 9.2307016 -41.59604645 9.23841095 C-32.75382831 9.27301999 -24.21435379 9.25063053 -15.50609207 7.4905529 C-11.37396408 6.68171296 -7.19202162 6.3524266 -3 6 C-3 5.01 -3 4.02 -3 3 C-1.5 1.3125 -1.5 1.3125 0 0 Z " fill="#133D90" transform="translate(243,329)"/>
<path d="M0 0 C4.37125634 0.52112842 6.57070726 1.95598525 9.875 4.8125 C11.30392578 6.02292969 11.30392578 6.02292969 12.76171875 7.2578125 C13.27782715 7.69770508 13.79393555 8.13759766 14.32568359 8.59082031 C17.40092791 11.17908368 20.54628109 13.68007349 23.6875 16.1875 C24.3280835 16.69998291 24.96866699 17.21246582 25.62866211 17.74047852 C30.02368943 21.24728839 34.46838272 24.67064853 39 28 C35.72814447 29.07310858 33.57052408 28.89263102 30.25 28.0625 C29.45078125 27.86785156 28.6515625 27.67320312 27.828125 27.47265625 C27.22484375 27.31667969 26.6215625 27.16070312 26 27 C26 26.34 26 25.68 26 25 C25.01 24.67 24.02 24.34 23 24 C23 23.34 23 22.68 23 22 C23.66 22 24.32 22 25 22 C25 21.34 25 20.68 25 20 C24.2575 20.20625 23.515 20.4125 22.75 20.625 C19.67669159 21.04408751 18.57213134 20.61949011 16 19 C16.33 17.68 16.66 16.36 17 15 C16.278125 15.350625 15.55625 15.70125 14.8125 16.0625 C11.6877295 17.10409017 10.11838004 16.89096572 7 16 C7 14.68 7 13.36 7 12 C7.66 12 8.32 12 9 12 C9 11.34 9 10.68 9 10 C8.01 10 7.02 10 6 10 C6 9.34 6 8.68 6 8 C5.34 8 4.68 8 4 8 C4 8.66 4 9.32 4 10 C3.34 10 2.68 10 2 10 C2.66 8.02 3.32 6.04 4 4 C2.35 4 0.7 4 -1 4 C-0.67 2.68 -0.34 1.36 0 0 Z " fill="#71D223" transform="translate(361,180)"/>
<path d="M0 0 C0.33 0.99 0.66 1.98 1 3 C0.34 3 -0.32 3 -1 3 C-1.28875 3.598125 -1.5775 4.19625 -1.875 4.8125 C-3 7 -3 7 -5 10 C-7.32206345 10.38196754 -7.32206345 10.38196754 -10.28729248 10.39199829 C-11.40886749 10.40309128 -12.5304425 10.41418427 -13.68600464 10.4256134 C-15.54057785 10.4211042 -15.54057785 10.4211042 -17.43261719 10.41650391 C-18.73024994 10.42508926 -20.02788269 10.43367462 -21.36483765 10.44252014 C-24.93115962 10.46590305 -28.4973077 10.47099631 -32.06369686 10.47317934 C-35.79523 10.47883244 -39.52664926 10.50210345 -43.25811768 10.52377319 C-50.3340813 10.56235119 -57.41001247 10.58653183 -64.48605466 10.60489786 C-77.14623908 10.63823419 -89.80632488 10.69613295 -102.46639371 10.75888956 C-106.90876355 10.78034636 -111.35110018 10.79563694 -115.79350996 10.80572915 C-117.8944646 10.81106921 -119.99539932 10.81854092 -122.09634399 10.82688904 C-124.65484444 10.83685271 -127.21336218 10.84327256 -129.7718811 10.84544373 C-130.90473541 10.85089706 -132.03758972 10.8563504 -133.20477295 10.86196899 C-134.18480663 10.86452509 -135.16484032 10.86708118 -136.17457199 10.86971474 C-139.1812882 11.00835951 -142.04325379 11.44921284 -145 12 C-143.02579865 9.47740939 -142.03254358 9.0070192 -138.8125 8.3125 C-137.884375 8.209375 -136.95625 8.10625 -136 8 C-136 7.34 -136 6.68 -136 6 C-135.01 6.33 -134.02 6.66 -133 7 C-133 7.66 -133 8.32 -133 9 C-132.09101959 8.98747192 -131.18203918 8.97494385 -130.24551392 8.96203613 C-118.7053994 8.80366828 -107.16522782 8.649886 -95.625 8.5 C-94.71077271 8.48812275 -93.79654541 8.4762455 -92.85461426 8.46400833 C-65.56872922 8.11107363 -38.28859298 7.8325379 -11 8 C-11 7.34 -11 6.68 -11 6 C-10.05125 5.9175 -9.1025 5.835 -8.125 5.75 C-7.09375 5.5025 -6.0625 5.255 -5 5 C-3.77472052 3.04978917 -3.77472052 3.04978917 -3 1 C-2.01 0.67 -1.02 0.34 0 0 Z " fill="#1894B5" transform="translate(300,106)"/>
<path d="M0 0 C29.7 0 59.4 0 90 0 C90 0.33 90 0.66 90 1 C86.25169273 1.86186259 82.74230169 2.14898055 78.8996582 2.20532227 C77.08671013 2.2352401 77.08671013 2.2352401 75.23713684 2.26576233 C73.9381395 2.28247482 72.63914215 2.29918732 71.30078125 2.31640625 C69.94182259 2.33701723 68.58286975 2.35801466 67.22392273 2.37937927 C63.64890577 2.43445101 60.0738315 2.48387237 56.49871826 2.53222656 C53.6036498 2.57231573 50.70864833 2.61636942 47.81364155 2.66066074 C12.89155628 3.19430745 12.89155628 3.19430745 5.875 2 C4.75867188 1.814375 3.64234375 1.62875 2.4921875 1.4375 C1.66976562 1.293125 0.84734375 1.14875 0 1 C0 0.67 0 0.34 0 0 Z " fill="#1899A3" transform="translate(179,67)"/>
<path d="M0 0 C15.09805327 1.82601824 26.81587199 15.20917441 36.4765625 25.9296875 C38.13866781 28.18844599 39.0721105 30.3633239 40 33 C39.01 33 38.02 33 37 33 C36.34 32.34 35.68 31.68 35 31 C32.42938689 30.35232207 32.42938689 30.35232207 30 30 C30.99 29.67 31.98 29.34 33 29 C33 28.01 33 27.02 33 26 C32.34 26 31.68 26 31 26 C31 25.34 31 24.68 31 24 C30.360625 23.731875 29.72125 23.46375 29.0625 23.1875 C27 22 27 22 26 19 C24.35 18.67 22.7 18.34 21 18 C21.33 17.34 21.66 16.68 22 16 C21.21625 15.855625 20.4325 15.71125 19.625 15.5625 C17 15 17 15 15 14 C14.525625 12.865625 14.05125 11.73125 13.5625 10.5625 C12.29809012 6.80931887 12.29809012 6.80931887 9 5 C6.66800612 4.92094936 4.33167378 4.91201231 2 5 C1.34 3.35 0.68 1.7 0 0 Z " fill="#0972AE" transform="translate(243,185)"/>
<path d="M0 0 C16.5 0 33 0 50 0 C50 0.33 50 0.66 50 1 C41.42 1.33 32.84 1.66 24 2 C23.67 2.66 23.34 3.32 23 4 C20.67843403 4.40729228 18.3431213 4.74438677 16 5 C16 5.99 16 6.98 16 8 C15.67 8.66 15.34 9.32 15 10 C12.875 10.3125 12.875 10.3125 10 10 C8.46246565 8.81481727 6.92661826 7.62058194 5.4921875 6.3125 C3.50160823 4.56162399 1.30790284 3.28971041 -1 2 C-0.67 1.34 -0.34 0.68 0 0 Z " fill="#51B74C" transform="translate(265,178)"/>
<path d="M0 0 C0.74443359 0.50660156 0.74443359 0.50660156 1.50390625 1.0234375 C2.52291016 1.69246094 2.52291016 1.69246094 3.5625 2.375 C4.55443359 3.03628906 4.55443359 3.03628906 5.56640625 3.7109375 C13.18970063 7.7489586 21.03988507 7.3265315 29.47265625 7.37890625 C30.88318504 7.39510746 32.29370286 7.41229015 33.70420837 7.43040466 C37.40238345 7.47589012 41.10057391 7.51079381 44.79888916 7.54260254 C50.72059903 7.59465521 56.64214628 7.65996813 62.56365776 7.73081779 C64.62307686 7.7534979 66.68247584 7.76986544 68.74195862 7.78553772 C70.00023972 7.79902756 71.25852081 7.8125174 72.55493164 7.82641602 C74.20870567 7.84068382 74.20870567 7.84068382 75.89588928 7.85523987 C79.00215821 8.00010065 81.94657891 8.4249216 85 9 C85 9.33 85 9.66 85 10 C75.89040835 10.02312545 66.78082674 10.04091612 57.6712122 10.05181217 C53.44168629 10.05704056 49.2121804 10.0641374 44.98266602 10.07543945 C40.90431457 10.08626991 36.82598243 10.09227717 32.74761772 10.09487724 C31.18822361 10.09673121 29.6288306 10.10035127 28.06944466 10.10573006 C25.89270838 10.11294262 23.71605286 10.11399085 21.53930664 10.11352539 C19.67732384 10.11685631 19.67732384 10.11685631 17.77772522 10.12025452 C15 10 15 10 14 9 C12.58674846 8.73136541 11.16923647 8.48497293 9.75 8.25 C5.21970549 7.29625379 2.89032992 5.72945796 0 2 C0 1.34 0 0.68 0 0 Z " fill="#18689E" transform="translate(146,171)"/>
<path d="M0 0 C1.65 0 3.3 0 5 0 C5 0.66 5 1.32 5 2 C5.78375 1.95875 6.5675 1.9175 7.375 1.875 C10 2 10 2 12 4 C17.73037099 6.2837676 22.8331557 7.12585397 29 7 C29.99 7.66 30.98 8.32 32 9 C34.82063332 9.30214367 34.82063332 9.30214367 38.05688477 9.25537109 C39.93012169 9.26580948 39.93012169 9.26580948 41.84120178 9.27645874 C42.50875048 9.2757777 43.17629917 9.27509666 43.86407661 9.27439499 C45.96336555 9.27342738 48.06214563 9.28640273 50.16136169 9.30337524 C56.12975009 9.3495509 62.09808953 9.37421052 68.06665039 9.38085938 C71.72079974 9.3859109 75.37442404 9.41035117 79.0283947 9.44618607 C80.41284958 9.45590879 81.79737744 9.45835761 83.18185616 9.45301437 C91.77098048 9.42144798 101.03208975 9.38965106 107.71192932 15.5887146 C109.125 17.25 109.125 17.25 111 20 C110.67 20.66 110.34 21.32 110 22 C109.05125 21.0925 108.1025 20.185 107.125 19.25 C98.49174594 11.9704023 89.53177697 11.43580222 78.5859375 11.53125 C77.20365429 11.52640716 75.8213775 11.51923836 74.43911743 11.5098877 C69.35390423 11.48053487 64.26896966 11.49330958 59.18371582 11.50506592 C37.70783068 11.54651124 19.51602345 11.02535451 0 1 C0 0.67 0 0.34 0 0 Z " fill="#145A9B" transform="translate(128,217)"/>
<path d="M0 0 C3.92045134 0.41998895 6.16018875 1.56351317 9.171875 4.0546875 C9.91824219 4.66957031 10.66460937 5.28445312 11.43359375 5.91796875 C12.19800781 6.56378906 12.96242188 7.20960938 13.75 7.875 C14.52988281 8.51308594 15.30976563 9.15117187 16.11328125 9.80859375 C21.86731917 14.60195751 21.86731917 14.60195751 23 18 C21.02 18.33 19.04 18.66 17 19 C16.67 18.01 16.34 17.02 16 16 C15.34 16 14.68 16 14 16 C13.67 14.68 13.34 13.36 13 12 C11.02 12.99 11.02 12.99 9 14 C9 12.68 9 11.36 9 10 C7.68 10 6.36 10 5 10 C5 9.34 5 8.68 5 8 C4.34 8 3.68 8 3 8 C3 7.34 3 6.68 3 6 C2.34 6 1.68 6 1 6 C1 5.01 1 4.02 1 3 C0.34 2.34 -0.32 1.68 -1 1 C-0.67 0.67 -0.34 0.34 0 0 Z " fill="#73D32F" transform="translate(336,160)"/>
<path d="M0 0 C-0.33 1.32 -0.66 2.64 -1 4 C-2.98 4 -4.96 4 -7 4 C-7 4.66 -7 5.32 -7 6 C-7.66 6 -8.32 6 -9 6 C-9.33 6.99 -9.66 7.98 -10 9 C-10.33 8.34 -10.66 7.68 -11 7 C-15.06024321 9.03802135 -15.06024321 9.03802135 -17 13 C-17.66 13 -18.32 13 -19 13 C-19.33 13.99 -19.66 14.98 -20 16 C-20.5775 15.79375 -21.155 15.5875 -21.75 15.375 C-24.65090274 14.89151621 -25.49603386 15.48851499 -28 17 C-29.5899923 18.40548807 -31.12943165 19.86942784 -32.625 21.375 C-33.40101562 22.14585938 -34.17703125 22.91671875 -34.9765625 23.7109375 C-37.05023591 25.85167966 -37.05023591 25.85167966 -38.0859375 28.2265625 C-39 30 -39 30 -42 31 C-35.64359673 17.1564871 -20.18473474 6.48572104 -6.4375 1.0625 C-3 0 -3 0 0 0 Z " fill="#0D83B3" transform="translate(145,71)"/>
<path d="M0 0 C0.99 0.66 1.98 1.32 3 2 C2.79368079 6.31154238 2.52448172 8.42852472 -0.44140625 11.66015625 C-1.47136719 12.45292969 -2.50132812 13.24570313 -3.5625 14.0625 C-4.10100586 14.48515137 -4.63951172 14.90780273 -5.19433594 15.34326172 C-6.7813156 16.58152223 -8.39038939 17.7913035 -10 19 C-10.84949219 19.65097656 -11.69898438 20.30195313 -12.57421875 20.97265625 C-14.36903004 22.3356817 -16.17418433 23.67896866 -18 25 C-19.39195915 20.82412255 -17.82323219 18.86525224 -16 15 C-14.02 15 -12.04 15 -10 15 C-9.67 14.01 -9.34 13.02 -9 12 C-8.34 11.67 -7.68 11.34 -7 11 C-7 10.01 -7 9.02 -7 8 C-6.01 8.33 -5.02 8.66 -4 9 C-1.49701566 6.06171403 -0.53069061 3.82097239 0 0 Z " fill="#74D134" transform="translate(402,211)"/>
<path d="M0 0 C1.32 0 2.64 0 4 0 C4.66 0.66 5.32 1.32 6 2 C6.66 1.67 7.32 1.34 8 1 C8 2.32 8 3.64 8 5 C8.66 5.33 9.32 5.66 10 6 C10 6.66 10 7.32 10 8 C10.61875 8.226875 11.2375 8.45375 11.875 8.6875 C14 10 14 10 14.875 12.5625 C15.431875 13.7690625 15.431875 13.7690625 16 15 C19.59356359 16.0704232 21.4268387 16.19105377 25 15 C25.33 15.99 25.66 16.98 26 18 C25.34 18 24.68 18 24 18 C24.33 19.65 24.66 21.3 25 23 C15.14182841 19.50419447 7.31302908 11.09620814 1 3 C0.67 2.01 0.34 1.02 0 0 Z " fill="#0950A9" transform="translate(103,194)"/>
<path d="M0 0 C0.33 0.99 0.66 1.98 1 3 C1.78973206 2.99777939 2.57946411 2.99555878 3.39312744 2.99327087 C10.97793486 2.97290939 18.56272832 2.95784841 26.1475563 2.94818783 C30.04337007 2.94305374 33.93916057 2.93613781 37.83496094 2.92456055 C57.5841361 2.86739232 77.26672169 3.10539706 97 4 C97 4.33 97 4.66 97 5 C64 5 31 5 -3 5 C-1 1 -1 1 0 0 Z " fill="#11318B" transform="translate(21,335)"/>
<path d="M0 0 C1.32 0.33 2.64 0.66 4 1 C3.34 1 2.68 1 2 1 C1.93425781 2.01964844 1.86851562 3.03929688 1.80078125 4.08984375 C0.88728711 8.55036879 -0.95313304 11.17134806 -3.8125 14.5625 C-4.69586406 15.64562628 -5.57739122 16.7302534 -6.45703125 17.81640625 C-7.10212646 18.59975342 -7.10212646 18.59975342 -7.76025391 19.39892578 C-9.00755373 21.0097553 -10.06846341 22.66903463 -11.13671875 24.40234375 C-11.75160156 25.25957031 -12.36648438 26.11679688 -13 27 C-13.99 27 -14.98 27 -16 27 C-14.66749209 23.4124787 -13.169283 20.1635377 -11 17 C-10.34 17 -9.68 17 -9 17 C-8.01879536 13.94736336 -8.01879536 12.05263664 -9 9 C-7.02 8.67 -5.04 8.34 -3 8 C-2.87625 7.4225 -2.7525 6.845 -2.625 6.25 C-1.99351176 3.97664233 -1.11141809 2.0746471 0 0 Z " fill="#0FA7BC" transform="translate(315,80)"/>
<path d="M0 0 C1.65 0 3.3 0 5 0 C1.45885576 3.63261291 -2.23243928 6.99456376 -6.125 10.25 C-6.68469482 10.72091064 -7.24438965 11.19182129 -7.82104492 11.67700195 C-13.17239955 16.16881649 -18.57525103 20.59714763 -24 25 C-24 20.92002657 -22.53804536 18.09500532 -20 15 C-16.28175202 12.4475142 -12.37696932 10.99654212 -8 10 C-7.67 8.68 -7.34 7.36 -7 6 C-6.21625 5.938125 -5.4325 5.87625 -4.625 5.8125 C-3.75875 5.544375 -2.8925 5.27625 -2 5 C-0.62533375 2.52363988 -0.62533375 2.52363988 0 0 Z " fill="#62B757" transform="translate(371,242)"/>
<path d="M0 0 C1.32 0.33 2.64 0.66 4 1 C-0.7787372 7.9782222 -5.90514528 12.46912743 -13 17 C-14.14655898 17.83233466 -15.29252943 18.66548165 -16.4375 19.5 C-17.283125 19.995 -18.12875 20.49 -19 21 C-19.99 20.67 -20.98 20.34 -22 20 C-21.01 18.515 -21.01 18.515 -20 17 C-18.68 17 -17.36 17 -16 17 C-16 16.01 -16 15.02 -16 14 C-14.68 14 -13.36 14 -12 14 C-11.67 13.01 -11.34 12.02 -11 11 C-8.9375 10.3125 -8.9375 10.3125 -7 10 C-7 8.02 -7 6.04 -7 4 C-6.030625 3.71125 -5.06125 3.4225 -4.0625 3.125 C-0.89335797 2.35785318 -0.89335797 2.35785318 0 0 Z " fill="#0A4DA5" transform="translate(272,310)"/>
<path d="M0 0 C0.99 0.33 1.98 0.66 3 1 C3 1.66 3 2.32 3 3 C4.65 3 6.3 3 8 3 C8.061875 3.61875 8.12375 4.2375 8.1875 4.875 C8.828919 7.27761141 8.828919 7.27761141 11.5625 8.25 C12.366875 8.4975 13.17125 8.745 14 9 C10.25 11 10.25 11 8 11 C7.67 10.01 7.34 9.02 7 8 C7.33 7.34 7.66 6.68 8 6 C5.69 6.66 3.38 7.32 1 8 C0.95101563 8.84304687 0.90203125 9.68609375 0.8515625 10.5546875 C0.77679688 11.65039062 0.70203125 12.74609375 0.625 13.875 C0.55539062 14.96554688 0.48578125 16.05609375 0.4140625 17.1796875 C0 20 0 20 -2 22 C-2.05790353 18.70840684 -2.09356261 15.41694397 -2.125 12.125 C-2.14175781 11.18785156 -2.15851563 10.25070313 -2.17578125 9.28515625 C-2.18544922 7.94130859 -2.18544922 7.94130859 -2.1953125 6.5703125 C-2.20578613 5.74289551 -2.21625977 4.91547852 -2.22705078 4.06298828 C-2 2 -2 2 0 0 Z " fill="#6BD02D" transform="translate(321,149)"/>
<path d="M0 0 C0.99 0.495 0.99 0.495 2 1 C1.67 1.66 1.34 2.32 1 3 C1.99 3.33 2.98 3.66 4 4 C5.64820195 6.60242414 6 7.86248779 6 11 C6.66 11 7.32 11 8 11 C8.67901044 13.81001195 9.34333172 16.62225661 10 19.4375 C10.19078125 20.22060547 10.3815625 21.00371094 10.578125 21.81054688 C11.85087568 27.33337573 12.18152971 32.33286923 12 38 C11.01 38.495 11.01 38.495 10 39 C9.84144531 37.77925781 9.68289063 36.55851562 9.51953125 35.30078125 C7.98828858 24.2479319 6.32271399 13.48407098 0 4 C0 2.68 0 1.36 0 0 Z " fill="#57AE63" transform="translate(296,209)"/>
<path d="M0 0 C3.15140423 0.34069235 4.60781561 0.58076841 6.8125 2.9375 C8 5 8 5 8 7 C10.475 7.99 10.475 7.99 13 9 C13 10.65 13 12.3 13 14 C13.99 14.33 14.98 14.66 16 15 C13.42786866 16.61949011 12.32330841 17.04408751 9.25 16.625 C8.5075 16.41875 7.765 16.2125 7 16 C7 14.68 7 13.36 7 12 C7.66 12 8.32 12 9 12 C9 11.34 9 10.68 9 10 C8.01 10 7.02 10 6 10 C6 9.34 6 8.68 6 8 C5.34 8 4.68 8 4 8 C4 8.66 4 9.32 4 10 C3.34 10 2.68 10 2 10 C2.66 8.02 3.32 6.04 4 4 C2.35 4 0.7 4 -1 4 C-0.67 2.68 -0.34 1.36 0 0 Z " fill="#6CD711" transform="translate(361,180)"/>
<path d="M0 0 C0.99 0.33 1.98 0.66 3 1 C3 1.66 3 2.32 3 3 C23.46 3 43.92 3 65 3 C65 3.33 65 3.66 65 4 C63.74212173 4.0154612 63.74212173 4.0154612 62.45883179 4.03123474 C54.5433487 4.12934506 46.62793779 4.23187835 38.71257591 4.33933926 C34.64353416 4.39442663 30.57448506 4.44782329 26.50537109 4.49731445 C22.57606648 4.54516807 18.64684479 4.59751724 14.71763992 4.65294075 C13.22101541 4.67326954 11.72436825 4.6919977 10.22770309 4.70907402 C8.12616575 4.73332922 6.0247821 4.76335288 3.92333984 4.79467773 C2.72865082 4.81022202 1.53396179 4.8257663 0.30307007 4.84178162 C-2.87359389 4.9939451 -5.87824926 5.40761881 -9 6 C-7.02579865 3.47740939 -6.03254358 3.0070192 -2.8125 2.3125 C-1.4203125 2.1578125 -1.4203125 2.1578125 0 2 C0 1.34 0 0.68 0 0 Z " fill="#1E83AB" transform="translate(164,112)"/>
<path d="M0 0 C0.90437805 0.00565979 1.8087561 0.01131958 2.74053955 0.01715088 C5.62444353 0.03951252 8.50709761 0.08970814 11.390625 0.140625 C13.34763829 0.16069029 15.30467108 0.17894101 17.26171875 0.1953125 C22.05516789 0.23937661 26.84768465 0.30840248 31.640625 0.390625 C31.640625 0.720625 31.640625 1.050625 31.640625 1.390625 C26.97774819 1.55810575 22.31470463 1.71867876 17.65136719 1.87280273 C16.06438771 1.92623256 14.47747105 1.98156271 12.890625 2.03881836 C10.61211696 2.12070224 8.33347178 2.19579024 6.0546875 2.26953125 C5.34317535 2.29656631 4.63166321 2.32360138 3.89859009 2.35145569 C-1.13163159 2.50449671 -1.13163159 2.50449671 -3.359375 1.390625 C-3.359375 2.050625 -3.359375 2.710625 -3.359375 3.390625 C-6.359375 4.390625 -6.359375 4.390625 -9.359375 4.390625 C-9.029375 5.380625 -8.699375 6.370625 -8.359375 7.390625 C-10.359375 10.390625 -10.359375 10.390625 -13.484375 11.078125 C-14.433125 11.18125 -15.381875 11.284375 -16.359375 11.390625 C-16.029375 10.400625 -15.699375 9.410625 -15.359375 8.390625 C-14.699375 8.390625 -14.039375 8.390625 -13.359375 8.390625 C-13.359375 7.070625 -13.359375 5.750625 -13.359375 4.390625 C-10.04664605 -0.81966435 -5.56671837 -0.13116679 0 0 Z " fill="#012DA5" transform="translate(64.359375,292.609375)"/>
<path d="M0 0 C0 0.99 0 1.98 0 3 C-0.7425 2.979375 -1.485 2.95875 -2.25 2.9375 C-4.74047648 2.99410174 -6.6275721 3.31123061 -9 4 C-11.94227886 4.82751593 -13.81655846 5 -17 5 C-17.33 4.34 -17.66 3.68 -18 3 C-18.9590625 3.2165625 -18.9590625 3.2165625 -19.9375 3.4375 C-23.93844788 4.17236798 -27.95504896 4.58581111 -32 5 C-32 4.34 -32 3.68 -32 3 C-21.56663241 -0.06863753 -10.80969135 -0.19496437 0 0 Z " fill="#0E83B0" transform="translate(178,67)"/>
<path d="M0 0 C0.99 0 1.98 0 3 0 C2.62875 0.7425 2.2575 1.485 1.875 2.25 C0.70484137 4.94283647 0.70484137 4.94283647 1.875 7.3125 C2.431875 8.1478125 2.431875 8.1478125 3 9 C2.34 9.66 1.68 10.32 1 11 C1.66 11.66 2.32 12.32 3 13 C0.03 13 -2.94 13 -6 13 C-7 11 -7 11 -6.375 8.75 C-4.62505385 5.2501077 -2.70735567 2.8394218 0 0 Z " fill="#022AAC" transform="translate(28,326)"/>
<path d="M0 0 C4.27081848 -0.02941647 8.54161034 -0.04693715 12.8125 -0.0625 C14.00810547 -0.07087891 15.20371094 -0.07925781 16.43554688 -0.08789062 C23.68507559 -0.10764411 30.79538651 0.18206935 38 1 C37.67 1.66 37.34 2.32 37 3 C11.0298471 3.41277905 11.0298471 3.41277905 0 1 C0 0.67 0 0.34 0 0 Z " fill="#0C87A8" transform="translate(179,67)"/>
<path d="M0 0 C2 1 2 1 2.6875 2.6875 C3.08562898 5.63365442 2.52569411 8.07947718 2 11 C1.96296931 12.99965715 1.95239444 15.00056665 2 17 C2.721875 16.67 3.44375 16.34 4.1875 16 C7.01697427 14.99396471 9.02895466 14.83022598 12 15 C11.34 16.32 10.68 17.64 10 19 C6.37 19 2.74 19 -1 19 C-2.02291109 14.90835562 -1.78368224 13.9184112 -1 10 C-0.96348232 7.62635109 -0.99963916 5.26362154 -1.0625 2.890625 C-1 1 -1 1 0 0 Z " fill="#40AF54" transform="translate(308,233)"/>
<path d="M0 0 C0.99 0.33 1.98 0.66 3 1 C3 1.66 3 2.32 3 3 C4.32 2.67 5.64 2.34 7 2 C5.14537377 5.70925246 0.76279132 6.48666587 -2.9453125 7.890625 C-10.03580043 10.0937027 -17.63811679 9.90911255 -25 10 C-25 9.67 -25 9.34 -25 9 C-17.68194135 7.70487966 -10.4071181 6.62272232 -3 6 C-3 5.01 -3 4.02 -3 3 C-1.5 1.3125 -1.5 1.3125 0 0 Z " fill="#0945AB" transform="translate(243,329)"/>
<path d="M0 0 C0.99 0.33 1.98 0.66 3 1 C2.67 2.65 2.34 4.3 2 6 C0.9275 6.144375 -0.145 6.28875 -1.25 6.4375 C-3.92861978 6.83929297 -6.40389949 7.28383434 -9 8 C-10.33333333 8.33333333 -11.66666667 8.66666667 -13 9 C-13 7.68 -13 6.36 -13 5 C-9.43260426 2.62173617 -7.12757458 2.61343525 -2.9609375 2.34375 C-2.31382812 2.2303125 -1.66671875 2.116875 -1 2 C-0.67 1.34 -0.34 0.68 0 0 Z " fill="#5AC62F" transform="translate(317,177)"/>
<path d="M0 0 C0.33 0.99 0.66 1.98 1 3 C0.38125 3.2475 -0.2375 3.495 -0.875 3.75 C-3.45315874 5.26656397 -3.76990517 6.31444945 -5 9 C-7.33333333 13.66666667 -9.66666667 18.33333333 -12 23 C-12.66 22.34 -13.32 21.68 -14 21 C-13.505 19.515 -13.505 19.515 -13 18 C-12.34 18 -11.68 18 -11 18 C-11.33 17.01 -11.66 16.02 -12 15 C-11.67 14.34 -11.34 13.68 -11 13 C-10.34 13 -9.68 13 -9 13 C-8.67 11.68 -8.34 10.36 -8 9 C-8.66 9 -9.32 9 -10 9 C-9.67 8.34 -9.34 7.68 -9 7 C-8.773125 6.319375 -8.54625 5.63875 -8.3125 4.9375 C-7 3 -7 3 -3.9375 2.375 C-2.968125 2.25125 -1.99875 2.1275 -1 2 C-0.67 1.34 -0.34 0.68 0 0 Z " fill="#0E6CA6" transform="translate(148,119)"/>
<path d="M0 0 C3.96 0 7.92 0 12 0 C12.02505615 0.83249268 12.0501123 1.66498535 12.07592773 2.52270508 C12.17112694 5.61462833 12.27035672 8.70638852 12.37231445 11.7980957 C12.43687006 13.79303319 12.4967783 15.78811929 12.55664062 17.78320312 C12.61948242 19.66362305 12.61948242 19.66362305 12.68359375 21.58203125 C12.72025146 22.73936768 12.75690918 23.8967041 12.79467773 25.08911133 C12.88328509 28.0643446 12.88328509 28.0643446 14 31 C14.86625 30.4740625 14.86625 30.4740625 15.75 29.9375 C18.35801776 28.85082593 19.39417629 29.06934867 22 30 C17.73029046 33.04979253 17.73029046 33.04979253 14.25 32.8125 C12 32 12 32 11 30 C10.91440882 27.82175039 10.89286588 25.64084745 10.90234375 23.4609375 C10.90556641 22.15898437 10.90878906 20.85703125 10.91210938 19.515625 C10.92046534 18.13541601 10.92893029 16.75520768 10.9375 15.375 C10.94251499 13.98698074 10.9470779 12.59895978 10.95117188 11.2109375 C10.96299024 7.80724868 10.97946566 4.40364561 11 1 C7.37 1 3.74 1 0 1 C0 0.67 0 0.34 0 0 Z " fill="#499C6D" transform="translate(307,252)"/>
<path d="M0 0 C0.33 0 0.66 0 1 0 C0.54996653 5.62541841 -0.68441485 8.61487125 -4 13 C-5.32 12.67 -6.64 12.34 -8 12 C-8.165 12.639375 -8.33 13.27875 -8.5 13.9375 C-10 16 -10 16 -11.9140625 16.48828125 C-13.93575155 16.7275978 -15.96841939 16.86893028 -18 17 C-15.781954 15.29381077 -13.59116824 13.75470094 -11.1875 12.3125 C-6.75298951 9.09530611 -2.47978453 4.95956906 0 0 Z " fill="#0E51A1" transform="translate(243,274)"/>
<path d="M0 0 C5.73091655 2.2349326 9.9590812 4.30732011 14 9 C9.18061476 9.23509196 5.53701494 8.45184478 1 7 C1 6.34 1 5.68 1 5 C0.01 4.67 -0.98 4.34 -2 4 C-2 3.34 -2 2.68 -2 2 C-1.34 2 -0.68 2 0 2 C0 1.34 0 0.68 0 0 Z " fill="#6ED918" transform="translate(386,200)"/>
<path d="M0 0 C0.99 0.66 1.98 1.32 3 2 C2.09985829 6.30067708 0.90171303 8.3884892 -2.625 10.875 C-3.73875 11.57625 -4.8525 12.2775 -6 13 C-6.5625 11.0625 -6.5625 11.0625 -7 9 C-6.67 8.67 -6.34 8.34 -6 8 C-6.99 7.34 -7.98 6.68 -9 6 C-4.25 4 -4.25 4 -2 4 C-1.34 2.68 -0.68 1.36 0 0 Z " fill="#3BAF4E" transform="translate(345,260)"/>
<path d="M0 0 C16.5 0 33 0 50 0 C50 0.33 50 0.66 50 1 C33.93328417 1.73279777 18.04560023 2.29883439 2 1 C2 1.66 2 2.32 2 3 C1.01 2.67 0.02 2.34 -1 2 C-0.67 1.34 -0.34 0.68 0 0 Z " fill="#66B560" transform="translate(265,178)"/>
<path d="M0 0 C0.99 0.33 1.98 0.66 3 1 C3 1.66 3 2.32 3 3 C3.78375 3.28875 4.5675 3.5775 5.375 3.875 C8 5 8 5 10 7 C10 7.99 10 8.98 10 10 C10.66 10 11.32 10 12 10 C12 10.99 12 11.98 12 13 C11.01 13.33 10.02 13.66 9 14 C9 12.68 9 11.36 9 10 C7.68 10 6.36 10 5 10 C5 9.34 5 8.68 5 8 C4.34 8 3.68 8 3 8 C3 7.34 3 6.68 3 6 C2.34 6 1.68 6 1 6 C1 5.01 1 4.02 1 3 C0.34 2.34 -0.32 1.68 -1 1 C-0.67 0.67 -0.34 0.34 0 0 Z " fill="#65D70E" transform="translate(336,160)"/>
<path d="M0 0 C-0.53675903 3.85103301 -2.11600923 5.31797587 -5.0625 7.75 C-6.16271484 8.67039063 -6.16271484 8.67039063 -7.28515625 9.609375 C-7.85105469 10.06828125 -8.41695313 10.5271875 -9 11 C-9.66 10.01 -10.32 9.02 -11 8 C-10 4.375 -10 4.375 -8 1 C-5.14287749 0.12537066 -2.95122196 0 0 0 Z " fill="#6ECA41" transform="translate(394,225)"/>
<path d="M0 0 C0.33 0 0.66 0 1 0 C1.125 5.75 1.125 5.75 0 8 C-0.20329268 9.82963411 -0.36472196 11.66408368 -0.5 13.5 C-0.88888889 18.77777778 -0.88888889 18.77777778 -2 21 C-2.23029956 23.37123246 -2.41119942 25.74741943 -2.5625 28.125 C-2.64628906 29.40632813 -2.73007813 30.68765625 -2.81640625 32.0078125 C-2.87699219 32.99523437 -2.93757813 33.98265625 -3 35 C-3.33 35 -3.66 35 -4 35 C-4.84570766 9.69141531 -4.84570766 9.69141531 0 0 Z " fill="#15669F" transform="translate(92,122)"/>
<path d="M0 0 C8.25 0 16.5 0 25 0 C22.00937337 1.99375109 19.39085683 2.89428582 16 4 C15.67 4.33 15.34 4.66 15 5 C14.38125 4.690625 13.7625 4.38125 13.125 4.0625 C8.81197706 2.5960722 4.5240004 2.33380974 0 2 C0 1.34 0 0.68 0 0 Z " fill="#0CC0CC" transform="translate(270,67)"/>
<path d="M0 0 C0.66 0.66 1.32 1.32 2 2 C-0.97 4.64 -3.94 7.28 -7 10 C-7.66 9.34 -8.32 8.68 -9 8 C-8.67 7.34 -8.34 6.68 -8 6 C-8.33 5.01 -8.66 4.02 -9 3 C-8.67 2.34 -8.34 1.68 -8 1 C-6.865625 1.020625 -5.73125 1.04125 -4.5625 1.0625 C-1.18424326 1.41577477 -1.18424326 1.41577477 0 0 Z " fill="#3EA964" transform="translate(337,271)"/>
<path d="M0 0 C3.125 0.3125 3.125 0.3125 5 2.3125 C5.556875 3.3025 5.556875 3.3025 6.125 4.3125 C4.805 4.3125 3.485 4.3125 2.125 4.3125 C1.795 3.6525 1.465 2.9925 1.125 2.3125 C0.135 2.6425 -0.855 2.9725 -1.875 3.3125 C-2.205 12.2225 -2.535 21.1325 -2.875 30.3125 C-3.205 30.3125 -3.535 30.3125 -3.875 30.3125 C-3.89965746 26.2007744 -3.91783959 22.08907722 -3.92993164 17.97729492 C-3.9349708 16.57754772 -3.94180216 15.1778058 -3.95043945 13.77807617 C-3.9625232 11.77004223 -3.96769807 9.76197043 -3.97265625 7.75390625 C-3.97789307 6.54420166 -3.98312988 5.33449707 -3.98852539 4.08813477 C-3.83345545 0.29675801 -3.77900758 0.41076169 0 0 Z " fill="#72BD49" transform="translate(321.875,147.6875)"/>
<path d="M0 0 C1.13442193 3.41215039 1.03350773 3.92066292 -0.4765625 7.49609375 C-1.18001894 8.81673367 -1.89670137 10.13039562 -2.625 11.4375 C-2.96917969 12.09298828 -3.31335938 12.74847656 -3.66796875 13.42382812 C-5.96299078 17.64548304 -8.44707776 20.7649708 -12 24 C-12 22.02 -12 20.04 -12 18 C-10.68 18 -9.36 18 -8 18 C-7.73445313 17.14148438 -7.46890625 16.28296875 -7.1953125 15.3984375 C-5.98976199 11.97089192 -4.52755614 8.85826202 -2.875 5.625 C-2.33617187 4.56539063 -1.79734375 3.50578125 -1.2421875 2.4140625 C-0.83226562 1.61742187 -0.42234375 0.82078125 0 0 Z " fill="#105093" transform="translate(288,286)"/>
<path d="M0 0 C3.16575136 3.16575136 4.15829274 5.31310559 5.75 9.4375 C6.19859375 10.57058594 6.6471875 11.70367187 7.109375 12.87109375 C8 16 8 16 7 20 C6.01 17.03 5.02 14.06 4 11 C1.03 10.505 1.03 10.505 -2 10 C-1.01 9.67 -0.02 9.34 1 9 C0.67 6.03 0.34 3.06 0 0 Z " fill="#1272A1" transform="translate(283,218)"/>
<path d="M0 0 C-0.66 0 -1.32 0 -2 0 C-2.08121094 0.58265625 -2.16242188 1.1653125 -2.24609375 1.765625 C-3.22972487 4.68084261 -4.70618481 5.80510492 -7.0625 7.75 C-8.16271484 8.67039062 -8.16271484 8.67039062 -9.28515625 9.609375 C-9.85105469 10.06828125 -10.41695313 10.5271875 -11 11 C-11 6.96668054 -9.30033307 4.19534321 -7 1 C-4.03185794 -1.15864877 -3.56966337 -1.18988779 0 0 Z " fill="#54A861" transform="translate(358,256)"/>
<path d="M0 0 C-0.33 1.32 -0.66 2.64 -1 4 C-1.55429688 4.06574219 -2.10859375 4.13148437 -2.6796875 4.19921875 C-5.96776655 5.33399351 -7.70158805 7.34206662 -10.125 9.8125 C-10.99382812 10.68519531 -11.86265625 11.55789062 -12.7578125 12.45703125 C-15.02781025 14.80874074 -15.02781025 14.80874074 -16.1171875 17.26171875 C-17 19 -17 19 -20 20 C-17.16176837 13.80250872 -7.2062588 0 0 0 Z " fill="#1875A3" transform="translate(123,82)"/>
<path d="M0 0 C1.87939453 -0.34057617 1.87939453 -0.34057617 4.1328125 -0.29296875 C4.93847656 -0.28330078 5.74414062 -0.27363281 6.57421875 -0.26367188 C7.41597656 -0.23853516 8.25773437 -0.21339844 9.125 -0.1875 C9.97449219 -0.17396484 10.82398438 -0.16042969 11.69921875 -0.14648438 C13.79974837 -0.11108219 15.89995293 -0.05727401 18 0 C12.00424316 3.99717123 4.96065698 3.1114696 -2 3 C-1.34 2.01 -0.68 1.02 0 0 Z " fill="#03A8BF" transform="translate(290,69)"/>
<path d="M0 0 C0.66 0.66 1.32 1.32 2 2 C0.84826645 4.46800047 -0.04783565 6.04783565 -2 8 C-2.33 7.34 -2.66 6.68 -3 6 C-3.598125 7.134375 -4.19625 8.26875 -4.8125 9.4375 C-6.625 12.875 -6.625 12.875 -10 14 C-9.54261927 9.31808451 -7.80889606 7.36895826 -4.4375 4.1875 C-3.61121094 3.39730469 -2.78492187 2.60710937 -1.93359375 1.79296875 C-1.29550781 1.20128906 -0.65742187 0.60960938 0 0 Z " fill="#026DB0" transform="translate(116,88)"/>
<path d="M0 0 C2.31 0 4.62 0 7 0 C6.03558469 2.41103827 5.31202953 3.77404758 3.1875 5.3125 C0.45808824 6.17031512 -1.27678692 5.75644808 -4 5 C-4 4.01 -4 3.02 -4 2 C-2.68 2 -1.36 2 0 2 C0 1.34 0 0.68 0 0 Z " fill="#024CB8" transform="translate(224,290)"/>
<path d="M0 0 C2 3.75 2 3.75 2 6 C0.824375 6.37125 0.824375 6.37125 -0.375 6.75 C-3.32317108 8.15389099 -3.9024777 9.00675737 -5 12 C-6.32 11.67 -7.64 11.34 -9 11 C-8.60167969 10.54109375 -8.20335938 10.0821875 -7.79296875 9.609375 C-5.08857938 6.47728415 -2.42008229 3.36122541 0 0 Z " fill="#09258B" transform="translate(37,314)"/>
<path d="M0 0 C0 0.66 0 1.32 0 2 C-0.66 2 -1.32 2 -2 2 C-1.67 3.65 -1.34 5.3 -1 7 C-4.40320742 5.98823563 -5.75725331 5.35156418 -7.8125 2.375 C-8.204375 1.59125 -8.59625 0.8075 -9 0 C-2.25 -1.125 -2.25 -1.125 0 0 Z " fill="#0851B0" transform="translate(129,210)"/>
<path d="M0 0 C5.85272256 0.45020943 10.08220119 3.03839227 15 6 C14.01 6.33 13.02 6.66 12 7 C11.01 6.34 10.02 5.68 9 5 C6.66800612 4.92094936 4.33167378 4.91201231 2 5 C1.34 3.35 0.68 1.7 0 0 Z " fill="#1171A5" transform="translate(243,185)"/>
<path d="M0 0 C8.44646925 6.15034169 8.44646925 6.15034169 12 10 C3.44620253 7.81962025 3.44620253 7.81962025 0 5 C-0.12890625 2.39453125 -0.12890625 2.39453125 0 0 Z " fill="#7DCE37" transform="translate(379,192)"/>
<path d="M0 0 C1.65 0 3.3 0 5 0 C5.061875 0.61875 5.12375 1.2375 5.1875 1.875 C5.828919 4.27761141 5.828919 4.27761141 8.5625 5.25 C9.366875 5.4975 10.17125 5.745 11 6 C7.25 8 7.25 8 5 8 C4.67 7.01 4.34 6.02 4 5 C4.33 4.34 4.66 3.68 5 3 C3.35 3.33 1.7 3.66 0 4 C0 2.68 0 1.36 0 0 Z " fill="#6ED623" transform="translate(324,152)"/>
<path d="M0 0 C0.33 0.66 0.66 1.32 1 2 C1.66 2 2.32 2 3 2 C4.03590199 7.05002222 4.10251672 11.87416389 4 17 C3.34 17.33 2.68 17.66 2 18 C1.34 12.06 0.68 6.12 0 0 Z " fill="#56A36C" transform="translate(304,230)"/>
<path d="M0 0 C-0.66 1.32 -1.32 2.64 -2 4 C-5.63 4 -9.26 4 -13 4 C-12 2 -12 2 -8.75 0.875 C-5.62299365 0.14536518 -3.17377095 -0.19234975 0 0 Z " fill="#46AB5C" transform="translate(320,248)"/>
<path d="M0 0 C0.99 0.66 1.98 1.32 3 2 C2.75 5.375 2.75 5.375 2 9 C-0.0625 10.4375 -0.0625 10.4375 -2 11 C-2 9.02 -2 7.04 -2 5 C-1.67 5 -1.34 5 -1 5 C-0.67 3.35 -0.34 1.7 0 0 Z " fill="#80D340" transform="translate(402,211)"/>
<path d="M0 0 C0.66 0 1.32 0 2 0 C2.33 0.99 2.66 1.98 3 3 C3.66 3.33 4.32 3.66 5 4 C6.2757381 7.24733335 5.83241855 9.67032582 5 13 C2.94876752 10.94876752 2.35852882 9.72994937 1.375 7.0625 C0.98441406 6.02802734 0.98441406 6.02802734 0.5859375 4.97265625 C0 3 0 3 0 0 Z " fill="#1058A4" transform="translate(91,169)"/>
<path d="M0 0 C3.52238047 1.56367357 6.27123994 3.69495889 9.25 6.125 C10.14203125 6.84945312 11.0340625 7.57390625 11.953125 8.3203125 C12.62859375 8.87460938 13.3040625 9.42890625 14 10 C10.25 11.125 10.25 11.125 8 10 C7.731875 9.38125 7.46375 8.7625 7.1875 8.125 C5.64531793 5.36530578 3.68517631 4.58356552 1 3 C0.67 2.01 0.34 1.02 0 0 Z " fill="#76C837" transform="translate(338,160)"/>
<path d="M0 0 C0.99 0.33 1.98 0.66 3 1 C3 1.66 3 2.32 3 3 C4.65 3 6.3 3 8 3 C8.33 3.66 8.66 4.32 9 5 C6.09399739 6.25664978 4.20395416 7 1 7 C0.67 4.69 0.34 2.38 0 0 Z " fill="#34A763" transform="translate(320,276)"/>
<path d="M0 0 C0.66 0 1.32 0 2 0 C1.67 1.32 1.34 2.64 1 4 C0.01 4 -0.98 4 -2 4 C-2 4.66 -2 5.32 -2 6 C-3.32 6.33 -4.64 6.66 -6 7 C-5.67 5.35 -5.34 3.7 -5 2 C-4.360625 1.855625 -3.72125 1.71125 -3.0625 1.5625 C-1.02454854 1.18992819 -1.02454854 1.18992819 0 0 Z " fill="#0328A7" transform="translate(44,310)"/>
<path d="M0 0 C3.53372712 1.96318174 6.24479785 4.04070881 9 7 C3.54545455 7.36363636 3.54545455 7.36363636 1.125 5.75 C0 4 0 4 0 0 Z " fill="#69D422" transform="translate(391,202)"/>
<path d="M0 0 C0.99 0.33 1.98 0.66 3 1 C2.01 1.495 2.01 1.495 1 2 C0.67 2.99 0.34 3.98 0 5 C-0.66 5 -1.32 5 -2 5 C-2.33 5.99 -2.66 6.98 -3 8 C-3.99 6.35 -4.98 4.7 -6 3 C-4 2 -2 1 0 0 Z " fill="#0677B9" transform="translate(128,79)"/>
<path d="M0 0 C0.33 0.99 0.66 1.98 1 3 C2.32 3.66 3.64 4.32 5 5 C2.03 5 -0.94 5 -4 5 C-4.33 4.34 -4.66 3.68 -5 3 C-4.67 2.34 -4.34 1.68 -4 1 C-1.9375 0.375 -1.9375 0.375 0 0 Z " fill="#022CAD" transform="translate(26,334)"/>
<path d="M0 0 C0.99 0.33 1.98 0.66 3 1 C3 1.66 3 2.32 3 3 C4.32 2.67 5.64 2.34 7 2 C7 5.11227195 6.54372951 7.94152152 6 11 C4.41028035 8.61542052 3.13258407 6.3695876 1.875 3.8125 C1.52179688 3.09707031 1.16859375 2.38164062 0.8046875 1.64453125 C0.53914062 1.10183594 0.27359375 0.55914062 0 0 Z " fill="#1261A5" transform="translate(239,239)"/>
<path d="M0 0 C0.66 0 1.32 0 2 0 C4.27678571 8.03571429 4.27678571 8.03571429 3 12 C2.30062798 10.5682384 1.61587282 9.12932968 0.9375 7.6875 C0.55464844 6.88699219 0.17179687 6.08648437 -0.22265625 5.26171875 C-1 3 -1 3 0 0 Z " fill="#4EB45E" transform="translate(302,220)"/>
<path d="M0 0 C5.6626826 2.8313413 9.15619099 5.98756041 13 11 C10.81536898 9.96588163 9.1859063 9.1936524 7.5 7.4375 C5.72539815 5.73683989 4.38993744 5.41205818 2 5 C2 4.01 2 3.02 2 2 C1.34 2 0.68 2 0 2 C0 1.34 0 0.68 0 0 Z " fill="#1873A2" transform="translate(258,192)"/>
<path d="M0 0 C1.32 0 2.64 0 4 0 C5.125 7.75 5.125 7.75 4 10 C1.80902348 6.6659053 0.56545837 3.95820859 0 0 Z " fill="#0D55AB" transform="translate(98,184)"/>
<path d="M0 0 C2.03144641 0.93446535 4.03533587 1.93224776 6 3 C4.35 4.65 2.7 6.3 1 8 C0.4375 6.0625 0.4375 6.0625 0 4 C0.33 3.67 0.66 3.34 1 3 C0.01 2.34 -0.98 1.68 -2 1 C-1.34 0.67 -0.68 0.34 0 0 Z " fill="#40A959" transform="translate(338,265)"/>
<path d="M0 0 C2.33944736 0.28730055 4.6739143 0.61936779 7 1 C4.82575883 3.50037734 3.26954202 4.43628586 0 5 C-0.5625 3.0625 -0.5625 3.0625 -1 1 C-0.67 0.67 -0.34 0.34 0 0 Z " fill="#0379BB" transform="translate(154,112)"/>
<path d="M0 0 C0.33 0.66 0.66 1.32 1 2 C0.06421005 4.35981813 -0.93347808 6.69631264 -2 9 C-3.32 9 -4.64 9 -6 9 C-4.47291037 5.56404834 -2.40072955 2.88087546 0 0 Z " fill="#0B2B94" transform="translate(28,326)"/>
<path d="M0 0 C1.32 0.33 2.64 0.66 4 1 C1.69 3.97 -0.62 6.94 -3 10 C-3.33 9.01 -3.66 8.02 -4 7 C-3.67 6.34 -3.34 5.68 -3 5 C-2.34 5 -1.68 5 -1 5 C-0.67 3.35 -0.34 1.7 0 0 Z " fill="#104C99" transform="translate(272,310)"/>
<path d="M0 0 C0.66 0.33 1.32 0.66 2 1 C0.54712339 2.33927721 -0.91247259 3.67126847 -2.375 5 C-3.18710937 5.7425 -3.99921875 6.485 -4.8359375 7.25 C-7 9 -7 9 -9 9 C-9 8.34 -9 7.68 -9 7 C-8.34 7 -7.68 7 -7 7 C-6.34 5.68 -5.68 4.36 -5 3 C-4.01 3 -3.02 3 -2 3 C-2 2.34 -2 1.68 -2 1 C-1.34 0.67 -0.68 0.34 0 0 Z " fill="#62B166" transform="translate(365,249)"/>
<path d="M0 0 C0.66 0 1.32 0 2 0 C2.639375 0.804375 3.27875 1.60875 3.9375 2.4375 C5.81035932 5.23720732 5.81035932 5.23720732 9 6 C9.33 7.65 9.66 9.3 10 11 C5.86062408 7.69984002 2.41337795 4.82675589 0 0 Z " fill="#134E94" transform="translate(106,198)"/>
<path d="M0 0 C1.32 0.33 2.64 0.66 4 1 C3.34 1 2.68 1 2 1 C1.67 3.31 1.34 5.62 1 8 C-0.32 7.67 -1.64 7.34 -3 7 C-1.125 2.25 -1.125 2.25 0 0 Z " fill="#04A4BA" transform="translate(315,80)"/>
<path d="M0 0 C0.33 0.66 0.66 1.32 1 2 C-3.06368679 2.77403558 -6.86425173 3.0984702 -11 3 C-7.63114177 -0.36885823 -4.54278442 -0.10095076 0 0 Z " fill="#168FA8" transform="translate(203,67)"/>
<path d="M0 0 C0.66 0.66 1.32 1.32 2 2 C-0.97 4.64 -3.94 7.28 -7 10 C-7.66 9.34 -8.32 8.68 -9 8 C-4.25 4 -4.25 4 -2 4 C-1.34 2.68 -0.68 1.36 0 0 Z " fill="#48A16F" transform="translate(337,271)"/>
<path d="M0 0 C0.66 0 1.32 0 2 0 C2.66 1.32 3.32 2.64 4 4 C3.34 4 2.68 4 2 4 C1.34 5.32 0.68 6.64 0 8 C-0.33 7.01 -0.66 6.02 -1 5 C-1.66 4.67 -2.32 4.34 -3 4 C-2 2 -2 2 0 0 Z " fill="#4EB448" transform="translate(300,208)"/>
<path d="M0 0 C2.96175123 0.61277612 4.38058783 1.25372522 7 3 C7 3.66 7 4.32 7 5 C4.69 4.67 2.38 4.34 0 4 C0 2.68 0 1.36 0 0 Z " fill="#014EAE" transform="translate(137,217)"/>
<path d="M0 0 C5.61 0 11.22 0 17 0 C17 0.33 17 0.66 17 1 C12.05 1 7.1 1 2 1 C2 1.66 2 2.32 2 3 C1.01 2.67 0.02 2.34 -1 2 C-0.67 1.34 -0.34 0.68 0 0 Z " fill="#54A56C" transform="translate(265,178)"/>
<path d="M0 0 C0.99 0.33 1.98 0.66 3 1 C3 1.99 3 2.98 3 4 C3.99 4 4.98 4 6 4 C5.67 4.66 5.34 5.32 5 6 C4.34 5.67 3.68 5.34 3 5 C2.67 5.99 2.34 6.98 2 8 C0.93224776 6.03533587 -0.06553465 4.03144641 -1 2 C-0.67 1.34 -0.34 0.68 0 0 Z " fill="#45B54A" transform="translate(293,204)"/>
<path d="M0 0 C2.375 0.3125 2.375 0.3125 5 1 C5.66 1.99 6.32 2.98 7 4 C4.36 4 1.72 4 -1 4 C-0.67 2.68 -0.34 1.36 0 0 Z " fill="#71D11E" transform="translate(361,180)"/>
<path d="M0 0 C2.64 0 5.28 0 8 0 C8 0.99 8 1.98 8 3 C5.03 2.67 2.06 2.34 -1 2 C-0.67 1.34 -0.34 0.68 0 0 Z " fill="#3AB637" transform="translate(267,180)"/>
<path d="M0 0 C0.65234375 1.796875 0.65234375 1.796875 1 4 C-0.36489377 6.33370072 -2.1419038 8.00594554 -4 10 C-4.33 9.34 -4.66 8.68 -5 8 C-4.00390625 6.0546875 -4.00390625 6.0546875 -2.5625 3.875 C-2.08941406 3.15054688 -1.61632812 2.42609375 -1.12890625 1.6796875 C-0.75636719 1.12539062 -0.38382812 0.57109375 0 0 Z " fill="#1673A5" transform="translate(102,102)"/>
<path d="M0 0 C-0.66 0 -1.32 0 -2 0 C-2 0.66 -2 1.32 -2 2 C-4.5 3.625 -4.5 3.625 -7 5 C-7 3.68 -7 2.36 -7 1 C-3.375 -1.125 -3.375 -1.125 0 0 Z " fill="#4FB956" transform="translate(358,256)"/>
<path d="M0 0 C0.66 0.66 1.32 1.32 2 2 C1.34 2 0.68 2 0 2 C0 1.34 0 0.68 0 0 Z M-2 2 C-1.34 2 -0.68 2 0 2 C0.1875 4.375 0.1875 4.375 0 7 C-0.99 7.66 -1.98 8.32 -3 9 C-4 6 -4 6 -3.0625 3.8125 C-2.5365625 2.9153125 -2.5365625 2.9153125 -2 2 Z " fill="#7CCF3F" transform="translate(387,227)"/>
<path d="M0 0 C-0.33 1.32 -0.66 2.64 -1 4 C-3.97 4.66 -6.94 5.32 -10 6 C-4 0 -4 0 0 0 Z " fill="#1A7CAA" transform="translate(134,75)"/>
<path d="M0 0 C0.598125 0.185625 1.19625 0.37125 1.8125 0.5625 C4.16408762 1.22093687 4.16408762 1.22093687 7 0 C7 0.99 7 1.98 7 3 C5.02 3.66 3.04 4.32 1 5 C0.67 3.35 0.34 1.7 0 0 Z " fill="#03B5C5" transform="translate(320,69)"/>
<path d="M0 0 C0.99 0.33 1.98 0.66 3 1 C2.67 2.65 2.34 4.3 2 6 C1.34 6 0.68 6 0 6 C-0.66 4.68 -1.32 3.36 -2 2 C-1.34 1.34 -0.68 0.68 0 0 Z " fill="#0255BA" transform="translate(274,304)"/>
<path d="M0 0 C0.99 0.33 1.98 0.66 3 1 C2.67 4.3 2.34 7.6 2 11 C-0.10814567 6.78370866 -0.17700355 4.60209225 0 0 Z " fill="#165D9F" transform="translate(89,157)"/>
<path d="M0 0 C-0.33 0.66 -0.66 1.32 -1 2 C-3.06640625 2.6328125 -3.06640625 2.6328125 -5.5625 3.125 C-6.80193359 3.37636719 -6.80193359 3.37636719 -8.06640625 3.6328125 C-8.70449219 3.75398438 -9.34257812 3.87515625 -10 4 C-10 3.34 -10 2.68 -10 2 C-6.49223216 0.39644899 -3.85645121 -0.22036864 0 0 Z " fill="#0F499B" transform="translate(246,333)"/>
<path d="M0 0 C1.65 0 3.3 0 5 0 C5 0.66 5 1.32 5 2 C5.66 2 6.32 2 7 2 C7 2.99 7 3.98 7 5 C6.01 5.33 5.02 5.66 4 6 C4 4.68 4 3.36 4 2 C2.68 2 1.36 2 0 2 C0 1.34 0 0.68 0 0 Z " fill="#6CD61C" transform="translate(341,168)"/>
<path d="M0 0 C0.66 0.33 1.32 0.66 2 1 C-1.465 3.97 -1.465 3.97 -5 7 C-5.33 6.01 -5.66 5.02 -6 4 C-5.01 4 -4.02 4 -3 4 C-2.67 3.01 -2.34 2.02 -2 1 C-1.34 0.67 -0.68 0.34 0 0 Z " fill="#71B95C" transform="translate(382,235)"/>
<path d="M0 0 C0.66 0.33 1.32 0.66 2 1 C2 1.66 2 2.32 2 3 C3.32 3.33 4.64 3.66 6 4 C5 5 5 5 2.4375 5.0625 C1.2309375 5.0315625 1.2309375 5.0315625 0 5 C-0.5625 3.0625 -0.5625 3.0625 -1 1 C-0.67 0.67 -0.34 0.34 0 0 Z " fill="#49BB4A" transform="translate(275,183)"/>
<path d="M0 0 C0.66 0.33 1.32 0.66 2 1 C-0.475 4.465 -0.475 4.465 -3 8 C-4.33332095 5.3333581 -3.67102033 3.83319697 -3 1 C-2.01 0.67 -1.02 0.34 0 0 Z " fill="#20A3AE" transform="translate(307,96)"/>
</svg>
